<svg aria-hidden="true" style="width:0;height:0;position:absolute" xmlns="http://www.w3.org/2000/svg" overflow="hidden"><defs><symbol id="astronaut" viewBox="0 0 32 32"><path fill="var(--color1, #2196f3)" d="M31.974 4.524a.534.534 0 0 0-.43-.363l-1.91-.278-.855-1.731c-.179-.365-.777-.365-.956 0l-.855 1.731-1.91.278a.535.535 0 0 0-.296.91l1.383 1.348-.326 1.903c-.034.2.048.402.212.522a.53.53 0 0 0 .562.04l1.709-.899 1.709.899a.536.536 0 0 0 .775-.563l-.326-1.903 1.383-1.348a.536.536 0 0 0 .135-.547zm-2.463 1.327a.534.534 0 0 0-.153.472l.191 1.114-1-.526a.533.533 0 0 0-.498 0l-1.001.526.191-1.114a.534.534 0 0 0-.153-.472l-.81-.789 1.119-.163a.532.532 0 0 0 .402-.292l.5-1.013.5 1.013a.535.535 0 0 0 .402.292l1.119.163-.809.789zm-3.377 14.671h-1.067v1.067h1.067v-1.067zm0 2.134h-1.067v1.067h1.067v-1.067zm1.066-1.067h-1.067v1.067H27.2v-1.067zm-2.133 0H24v1.067h1.067v-1.067zm-2.667 4.8h-1.067v1.067H22.4v-1.067zm0 2.133h-1.067v1.067H22.4v-1.067zm1.067-1.066H22.4v1.067h1.067v-1.067zm-2.134 0h-1.067v1.067h1.067v-1.067zM16 24.256h-1.067v1.067H16v-1.067zm0 2.133h-1.067v1.067H16v-1.067zm1.067-1.067H16v1.067h1.067v-1.067zm-2.134 0h-1.067v1.067h1.067v-1.067zm-9.066-19.2H4.8v1.067h1.067V6.122zm0 2.133H4.8v1.067h1.067V8.255z"/><path fill="var(--color1, #2196f3)" d="M6.933 7.189H5.866v1.067h1.067V7.189zm-2.133 0H3.733v1.067H4.8V7.189z"/><path fill="var(--color2, #212121)" d="M24.715 14.159a1.775 1.775 0 0 0-1.188-.705 1.778 1.778 0 0 0-1.34.352l-1.252.96-1.898 1.417-1.358-.541c2.421-1.086 4.114-3.508 4.114-6.32 0-3.823-3.123-6.933-6.961-6.933s-6.961 3.11-6.961 6.933a6.86 6.86 0 0 0 1.12 3.758l-2.764-.024h-.005c-.009 0-.015.004-.023.005a.515.515 0 0 0-.155.031l-.038.013c-.006.003-.013.003-.019.006l-3.233 1.596-.001.001-1.893.911a.397.397 0 0 0-.063.035 1.779 1.779 0 0 0-.598 2.295c.22.429.595.745 1.056.889a1.776 1.776 0 0 0 1.378-.128l1.388-.738 2.264-1.169 1.357-.008L2.2 22.211l-.002.001-1.339 1.333c-.316.315-.49.732-.49 1.178s.174.863.49 1.179c.325.323.752.485 1.179.485s.854-.162 1.18-.485l1.314-1.309 1.741-1.3.901.897-1.762 1.754-.002.001-1.339 1.333c-.316.315-.49.732-.49 1.178s.174.863.49 1.179c.325.323.753.485 1.18.485s.855-.162 1.18-.485l3.482-3.467.001-.002 1.01-1-.004-.004c.006-.006.015-.009.022-.015l5.166-5.658 3.471.494a.52.52 0 0 0 .262-.033c.018-.006.033-.015.05-.023.019-.01.039-.015.058-.027l3.213-2.133c.012-.008.018-.021.029-.029.013-.01.029-.014.041-.026l1.271-1.191c.662-.62.753-1.635.212-2.362zM2.13 17.77a.714.714 0 0 1-.558.052.717.717 0 0 1-.213-1.26l1.314-.632.449 1.312-.992.528zm3.498-1.828-1.548.8-.439-1.283 2.027-1.001-.04 1.484zm15.099-6.62a5.79 5.79 0 0 1-.599 2.559l-4.181-1.899a1.863 1.863 0 0 0-.788-1.388l1.464-4.86c2.378.756 4.105 2.974 4.105 5.588zm-11.789 0c0-3.235 2.644-5.867 5.894-5.867.253 0 .5.021.745.052l-1.432 4.754c-.019-.001-.037-.006-.057-.006-1.033 0-1.873.837-1.873 1.867s.84 1.867 1.873 1.867c.694 0 1.294-.383 1.618-.945l3.862 1.755a5.894 5.894 0 0 1-4.737 2.39c-3.25 0-5.894-2.632-5.894-5.867zm5.956.8c0 .441-.362.8-.806.8s-.806-.359-.806-.8c0-.441.362-.8.806-.8s.806.359.806.8zM2.465 25.146a.608.608 0 0 1-.854.001.592.592 0 0 1 0-.844l.962-.958.851.848-.959.955zm3.214 3.734a.608.608 0 0 1-.855.001.592.592 0 0 1 0-.844l.963-.959.852.848-.96.955zm3.481-3.469-.002.001-1.765 1.76-.852-.848 1.763-1.755.002-.001c.04-.04.065-.088.09-.135.007-.014.02-.026.026-.04.017-.041.019-.085.026-.129.003-.025.014-.047.014-.073 0-.036-.013-.07-.02-.106-.006-.032-.006-.065-.019-.095a.55.55 0 0 0-.091-.138c-.01-.012-.014-.027-.025-.038h-.001l-.001-.002-1.607-1.6c-.017-.017-.039-.024-.058-.038a.507.507 0 0 0-.087-.058.515.515 0 0 0-.093-.033.507.507 0 0 0-.103-.02.5.5 0 0 0-.095.005.53.53 0 0 0-.104.02.477.477 0 0 0-.094.045c-.02.011-.042.015-.061.029L4.23 23.486l-.901-.897 2.399-2.386 4.361 4.289-.928.919zm6.819-7.017c-.015-.002-.03.004-.045.003a.556.556 0 0 0-.3.075.492.492 0 0 0-.083.061c-.013.011-.028.017-.04.029l-4.698 5.146-4.328-4.257 2.833-2.818a.534.534 0 0 0-.379-.911v-.001l-2.219.013.028-1.607 3.104.027a6.947 6.947 0 0 0 4.981 2.101c.437 0 .864-.045 1.279-.123.04.032.079.065.13.085l2.41.96.331 1.644-3.003-.427zm4.041.178-.313-1.558 1.446-1.08.947 1.257-2.08 1.381zm3.754-2.831-.838.785-.931-1.236.831-.637a.735.735 0 0 1 .543-.143.718.718 0 0 1 .48.284.713.713 0 0 1-.085.947z"/><path fill="var(--color2, #212121)" d="m13.602 18.544-2.143-2.133a.534.534 0 0 0-.753 0l-2.142 2.133a.537.537 0 0 0 0 .756l2.142 2.133a.536.536 0 0 0 .753 0l2.143-2.133a.535.535 0 0 0 0-.756zm-2.519 1.759-1.387-1.381 1.387-1.381 1.387 1.381-1.387 1.381zm6.081-15.232-.258 1.036c.071.018 1.738.452 1.738 2.149h1.067c0-2.017-1.666-2.965-2.547-3.185zm2.547 4.251h-1.067v1.067h1.067V9.322z"/></symbol><symbol id="clock" viewBox="0 0 32 32"><path fill="var(--color2, #212121)" d="M31.297 15.301C31.295 6.849 24.442-.002 15.989 0S.686 6.855.688 15.308a15.304 15.304 0 0 0 10.649 14.576.662.662 0 0 0 .529-.065.637.637 0 0 0 .283-.356l3.865-12.25a1.912 1.912 0 1 0-.84-3.635l-5.106-5.107a.637.637 0 0 0-.902.902l5.103 5.109a1.876 1.876 0 0 0 .536 2.309l-3.683 11.673C3.844 25.783.118 17.71 2.799 10.432S13.553-.572 20.831 2.109s11.004 10.754 8.323 18.032a14.042 14.042 0 0 1-7.462 7.973l-.398-1.874a.638.638 0 0 0-1.048-.344l-3.837 3.426a.637.637 0 0 0 .231 1.084l4.899 1.563a.638.638 0 0 0 .819-.74l-.391-1.839a15.255 15.255 0 0 0 9.329-14.089zm-15.305-.637a.638.638 0 1 1 0 1.277.638.638 0 0 1 0-1.277zm2.101 14.864 2.184-1.948.603 2.84-2.787-.892z"/><path fill="var(--color1, #2196f3)" d="M15.354 3.185V4.46a.638.638 0 1 0 1.276 0V3.185a.638.638 0 0 0-1.276 0zM3.876 14.664a.638.638 0 0 0 0 1.276h1.275a.638.638 0 1 0 0-1.276H3.876zm24.232 1.275a.638.638 0 1 0 0-1.276h-1.275a.638.638 0 0 0 0 1.276h1.275z"/></symbol><symbol id="diagram" viewBox="0 0 32 32"><path fill="var(--color1, #2196f3)" d="M14.926 14.965h1.066v4.798h-1.066v-4.797zm4.264 2.132h1.066v2.665H19.19v-2.665zm-8.529 1.599h1.066v1.066h-1.066v-1.066zm-3.198-.533h1.066v1.599H7.463v-1.599z"/><path fill="var(--color2, #212121)" d="M1.599 28.291h25.587a1.6 1.6 0 0 0 1.599-1.599V24.56a1.6 1.6 0 0 0-1.599-1.599h-.533V9.668L29.681 6.8a1.608 1.608 0 1 0-.746-.763L26.654 8.2V6.97a1.6 1.6 0 0 0-1.599-1.599H3.733A1.6 1.6 0 0 0 2.134 6.97v15.992h-.533a1.6 1.6 0 0 0-1.599 1.599v2.132a1.6 1.6 0 0 0 1.599 1.599zM30.384 4.837a.533.533 0 1 1 0 1.067.533.533 0 0 1 0-1.067zM3.198 6.969c0-.294.239-.533.533-.533h21.322c.294 0 .533.239.533.533v2.239l-1.066 1.013V8.035a.533.533 0 0 0-.533-.533H4.797a.533.533 0 0 0-.533.533v13.326c0 .294.239.533.533.533h19.19a.533.533 0 0 0 .533-.533v-9.674l1.066-1.01v12.284H3.198V6.969zm4.798 6.93a1.598 1.598 0 1 0 1.107 2.749l1.853.93a.532.532 0 0 0 .636-.123l3.939-4.431 3.872 2.901a.533.533 0 0 0 .686-.039l3.365-3.188v8.131H5.33V8.569h18.124v2.66l-3.771 3.572-3.904-2.927a.533.533 0 0 0-.718.072l-3.993 4.493-1.493-.746c.011-.064.018-.129.02-.193a1.6 1.6 0 0 0-1.599-1.599zm.533 1.599a.533.533 0 1 1-1.067 0 .533.533 0 0 1 1.067 0zm3.198 8.529h5.331v.533a.533.533 0 0 1-.533.533h-4.264a.533.533 0 0 1-.533-.533v-.533zm-10.661.533c0-.294.239-.533.533-.533h9.062v.533a1.6 1.6 0 0 0 1.599 1.599h4.264a1.6 1.6 0 0 0 1.599-1.599v-.533h9.062c.294 0 .533.239.533.533v2.132a.533.533 0 0 1-.533.533H1.598a.533.533 0 0 1-.533-.533V24.56z"/></symbol><symbol id="envelope" viewBox="0 0 43 32"><path d="M38.667 0H4C1.794 0 0 1.794 0 4v24c0 2.206 1.794 4 4 4h34.667c2.206 0 4-1.794 4-4V4c0-2.206-1.794-4-4-4zm0 2.667c.181 0 .353.038.511.103L21.334 18.236 3.49 2.77a1.32 1.32 0 0 1 .511-.103h34.667zm0 26.666H4A1.334 1.334 0 0 1 2.667 28V5.587L20.46 21.008a1.335 1.335 0 0 0 1.748 0L40.001 5.587V28c0 .736-.598 1.333-1.333 1.333z"/></symbol><symbol id="facebook" viewBox="0 0 32 32"><path d="M21.329 5.313h2.921V.225C23.746.156 22.013 0 19.994 0c-4.212 0-7.097 2.649-7.097 7.519V12H8.249v5.688h4.648V32h5.699V17.689h4.46l.708-5.688h-5.169V8.082c.001-1.644.444-2.769 2.735-2.769z"/></symbol><symbol id="Group" viewBox="0 0 30 32"><path fill="var(--color2, #212121)" d="m29.859 22.098-8.443-8.505.937-4.615c.242.094.499.144.758.146h.006a2.159 2.159 0 1 0-2.008-1.435l-4.96.605L8.058.161a.534.534 0 0 0-.377-.16.532.532 0 0 0-.373.155L5.795 1.66a.534.534 0 0 0 0 .754l.814.826a14.943 14.943 0 0 0 2.519 17.663.513.513 0 0 0 .146.098c-.034.18-.051.364-.052.547v6.187h-6.4a2.67 2.67 0 0 0-2.667 2.667v1.067c0 .295.239.533.533.533h24.533a.533.533 0 0 0 .533-.533v-1.067a2.67 2.67 0 0 0-2.667-2.667h-6.4v-2.742a15.09 15.09 0 0 0 3.049.32 14.854 14.854 0 0 0 7.04-1.783l.818.823a.534.534 0 0 0 .377.16.532.532 0 0 0 .373-.155l1.513-1.504a.534.534 0 0 0 0-.754zM22.366 6.233a1.066 1.066 0 1 1 .752 1.822h-.003a1.067 1.067 0 0 1-.747-1.823h-.002zM21.11 9.738l-.598 2.946-1.175-1.182 1.774-1.763zm-.606-.902-1.92 1.909-1.485-1.493 3.405-.415zM23.09 28.8a1.6 1.6 0 0 1 1.6 1.6v.533H1.223V30.4a1.6 1.6 0 0 1 1.6-1.6H23.09zm-7.467-2.133v1.067H10.29v-1.067h5.333zM10.29 25.6v-4.053c0-1.294 1.196-2.347 2.667-2.347s2.667 1.053 2.667 2.347V25.6h-5.333zm6.4-1.696v-2.357c0-1.882-1.675-3.413-3.733-3.413a3.8 3.8 0 0 0-3.281 1.786A13.87 13.87 0 0 1 7.397 4.033l18.602 18.708a13.818 13.818 0 0 1-9.309 1.163zm11.289-.684L6.922 2.039l.755-.752 7.935 7.98c.004 0 .006.007.01.01l13.115 13.191-.757.752z"/><path fill="var(--color1, #2196f3)" d="M12.961 20.267h-.005a1.6 1.6 0 1 0-.004 3.2h.005a1.6 1.6 0 1 0 .004-3.2zm.374 1.978a.534.534 0 0 1-.752-.756.534.534 0 0 1 .373-.155.532.532 0 0 1 .373.911h.005z"/></symbol><symbol id="instagram" viewBox="0 0 32 32"><path d="M31.969 9.408c-.075-1.7-.35-2.869-.744-3.882a7.806 7.806 0 0 0-1.851-2.838A7.867 7.867 0 0 0 26.542.844C25.523.45 24.36.175 22.66.1 20.947.019 20.403 0 16.059 0s-4.888.019-6.595.094c-1.7.075-2.869.35-3.882.744a7.803 7.803 0 0 0-2.838 1.85A7.867 7.867 0 0 0 .9 5.52C.506 6.539.231 7.702.156 9.402c-.081 1.713-.1 2.257-.1 6.601s.019 4.888.094 6.595c.075 1.7.35 2.869.744 3.882a7.895 7.895 0 0 0 1.85 2.838 7.867 7.867 0 0 0 2.832 1.844c1.019.394 2.182.669 3.882.744 1.706.075 2.25.094 6.595.094s4.888-.019 6.595-.094c1.7-.075 2.869-.35 3.882-.744a8.184 8.184 0 0 0 4.682-4.682c.394-1.019.669-2.182.744-3.882.075-1.707.094-2.251.094-6.595s-.006-4.888-.081-6.595zm-2.882 13.065c-.069 1.563-.331 2.407-.55 2.969a5.31 5.31 0 0 1-3.038 3.038c-.563.219-1.413.481-2.969.55-1.688.075-2.194.094-6.464.094s-4.782-.019-6.464-.094c-1.563-.069-2.407-.331-2.969-.55a4.926 4.926 0 0 1-1.838-1.194 4.974 4.974 0 0 1-1.194-1.838c-.219-.563-.481-1.413-.55-2.969-.075-1.688-.094-2.194-.094-6.464s.019-4.782.094-6.464c.069-1.563.331-2.407.55-2.969a4.868 4.868 0 0 1 1.2-1.838A4.974 4.974 0 0 1 6.639 3.55c.563-.219 1.413-.481 2.969-.55 1.688-.075 2.194-.094 6.464-.094 4.276 0 4.782.019 6.464.094 1.563.069 2.407.331 2.969.55a4.914 4.914 0 0 1 1.838 1.194 4.974 4.974 0 0 1 1.194 1.838c.219.563.481 1.413.55 2.969.075 1.688.094 2.194.094 6.464s-.019 4.77-.094 6.458z"/><path d="M16.059 7.783c-4.538 0-8.22 3.682-8.22 8.22s3.682 8.22 8.22 8.22c4.539 0 8.22-3.682 8.22-8.22s-3.682-8.22-8.22-8.22zm0 13.552a5.333 5.333 0 0 1 0-10.664 5.333 5.333 0 0 1 0 10.664zM26.524 7.458a1.919 1.919 0 1 1-3.838 0 1.919 1.919 0 0 1 3.838 0z"/></symbol><symbol id="linkedin" viewBox="0 0 32 32"><path d="M31.992 32v-.001H32V20.263c0-5.741-1.236-10.164-7.948-10.164-3.227 0-5.392 1.771-6.276 3.449h-.093v-2.913h-6.364v21.364h6.627V21.42c0-2.785.528-5.479 3.977-5.479 3.399 0 3.449 3.179 3.449 5.657v10.401h6.62zM.528 10.636h6.635V32H.528V10.636zM3.843 0C1.722 0 0 1.721 0 3.843s1.721 3.879 3.843 3.879c2.121 0 3.843-1.757 3.843-3.879A3.846 3.846 0 0 0 3.843 0z"/></symbol><symbol id="logo1" viewBox="0 0 29 32"><path d="m3.84 0 4.677 4.428h13.046v12.351l4.677 4.428V.001H3.84z"/><path d="M0 4.241v20.6h21.76v-8.188L8.655 4.247 0 4.242zm17.615 17.587H3.443V7.974h1.002V20.89h13.17v.938zM6.266 28.662l.523-1.078h.438l-.763 1.438v.837h-.397v-.837l-.764-1.438h.439l.523 1.078zm2.247.667h-.881l-.184.53h-.411l.859-2.275h.355l.861 2.275H8.7l-.186-.53zm-.77-.319h.659l-.33-.944-.33.944zm2.328.234c0-.105.029-.202.086-.289.057-.089.17-.193.339-.314-.088-.111-.151-.206-.186-.284s-.052-.154-.052-.227c0-.178.054-.319.162-.422s.254-.156.438-.156a.57.57 0 0 1 .406.147.47.47 0 0 1 .159.361.5.5 0 0 1-.072.262.879.879 0 0 1-.236.238l-.155.113.439.519a.9.9 0 0 0 .095-.417h.33c0 .28-.066.51-.197.689l.334.395h-.441l-.128-.152c-.162.122-.356.183-.581.183s-.405-.059-.541-.178a.599.599 0 0 1-.202-.467zm.753.343a.58.58 0 0 0 .359-.128l-.497-.586-.048.034c-.125.095-.188.203-.188.325 0 .105.034.191.102.256s.158.098.272.098zm-.209-1.466c0 .087.054.197.161.33l.173-.119.048-.039a.28.28 0 0 0 .097-.22.2.2 0 0 0-.067-.152.236.236 0 0 0-.17-.064c-.074 0-.133.025-.177.075s-.066.113-.066.189zm4.133.997a.827.827 0 0 1-.269.569c-.156.135-.364.203-.623.203a.902.902 0 0 1-.48-.128c-.137-.086-.244-.209-.319-.367s-.114-.342-.117-.552v-.212c0-.215.038-.404.114-.567a.86.86 0 0 1 .821-.511c.251 0 .453.068.606.205s.242.329.267.578h-.394c-.019-.164-.067-.281-.144-.353-.076-.073-.188-.109-.336-.109a.464.464 0 0 0-.397.189c-.092.125-.139.309-.141.552v.202c0 .246.044.433.131.563s.218.194.387.194c.155 0 .272-.035.35-.105s.128-.186.148-.348h.394zm2.17-.338c0 .223-.039.419-.116.588a.884.884 0 0 1-.331.388.905.905 0 0 1-.494.134.926.926 0 0 1-.494-.134.896.896 0 0 1-.334-.386 1.362 1.362 0 0 1-.119-.576v-.128c0-.222.039-.418.117-.588a.887.887 0 0 1 .333-.389c.144-.091.308-.136.494-.136s.349.045.492.134c.144.088.255.217.333.384s.118.361.119.583v.127zm-.395-.118c0-.252-.048-.445-.144-.58a.468.468 0 0 0-.405-.202.467.467 0 0 0-.402.202c-.096.133-.145.322-.147.567v.131c0 .25.048.443.145.58s.233.205.406.205a.464.464 0 0 0 .403-.2c.095-.133.142-.328.142-.584v-.119z"/></symbol><symbol id="logo2" viewBox="0 0 25 32"><path d="M10.447 1.806h.084c.156 0 .324.016.49.03.734.052 1.463.162 2.179.329V.403a12.974 12.974 0 0 0-2.249-.358 18.11 18.11 0 0 0-.909-.044h-.263a18.35 18.35 0 0 0-4.515.582 18.3 18.3 0 0 0-4.79 1.948v17.475a19.484 19.484 0 0 1 4.566-1.779 19.948 19.948 0 0 1 3.833-.588h.051c.216-.011.433-.017.655-.019v-1.79a21.155 21.155 0 0 0-4.982.662 23.81 23.81 0 0 0-1.731.513l-.623.211V3.591l.266-.128A17.409 17.409 0 0 1 8.98 1.812a.523.523 0 0 1 .056 0c.248-.013.497-.019.741-.019h.28c.129.003.258.006.388.014z"/><path d="M14.837 3.651a15.823 15.823 0 0 1-2.606-.211c-.277-.047-.55-.103-.814-.164v17.275a13.82 13.82 0 0 0 3.425.404 18.396 18.396 0 0 0 4.515-.581 18.362 18.362 0 0 0 4.792-1.948V1.263a19.58 19.58 0 0 1-4.564 1.781 19.388 19.388 0 0 1-4.747.609zm6.908.299.623-.21v13.63l-.266.128a17.055 17.055 0 0 1-3.184 1.144c-1.331.344-2.7.522-4.074.527-.411 0-.819-.017-1.214-.052l-.427-.038V5.062l.497.033c.361.023.735.034 1.141.034a21.092 21.092 0 0 0 5.173-.663 26.802 26.802 0 0 0 1.731-.518zM1.684 25.977a.912.912 0 0 0-.693-.28 1.034 1.034 0 0 0-.4.075.91.91 0 0 0-.512.518 1.023 1.023 0 0 0-.072.387v2.335c-.006.165.026.328.092.479.055.12.135.226.233.313a.815.815 0 0 0 .321.166c.114.032.231.048.349.049a.972.972 0 0 0 .892-.61.951.951 0 0 0 .075-.372v-.261h-.61v.208a.528.528 0 0 1-.036.208.359.359 0 0 1-.089.131.365.365 0 0 1-.128.067.425.425 0 0 1-.128.022.314.314 0 0 1-.286-.125.548.548 0 0 1-.081-.313v-2.177a.738.738 0 0 1 .075-.349.31.31 0 0 1 .299-.141.33.33 0 0 1 .272.131c.068.09.104.2.101.313v.202h.604v-.238a1.093 1.093 0 0 0-.279-.737zm3.626-.027a1.051 1.051 0 0 0-1.38 0 .961.961 0 0 0-.237.327 1.099 1.099 0 0 0-.089.452v2.239a1.08 1.08 0 0 0 .089.459c.055.12.136.227.237.313a.94.94 0 0 0 .322.197 1.028 1.028 0 0 0 .728 0c.121-.044.233-.111.33-.197a.948.948 0 0 0 .23-.313 1.08 1.08 0 0 0 .089-.459v-2.239a1.08 1.08 0 0 0-.089-.452 1.015 1.015 0 0 0-.23-.327zm-.285 3.019a.405.405 0 0 1-.121.324.445.445 0 0 1-.574 0 .397.397 0 0 1-.121-.324V26.73a.405.405 0 0 1 .121-.324.445.445 0 0 1 .574 0 .397.397 0 0 1 .121.324v2.239zm5.047 1V25.73h-.587l-.771 2.244h-.011l-.777-2.244h-.581v4.239h.606V27.39h.011l.593 1.823h.302l.598-1.823h.011v2.579h.606zm3.441-3.942a.84.84 0 0 0-.343-.232 1.363 1.363 0 0 0-.439-.066h-.9v4.239h.604v-1.656h.311c.188.009.376-.031.545-.116a.882.882 0 0 0 .332-.324 1.02 1.02 0 0 0 .139-.369c.024-.16.035-.321.033-.482a2.421 2.421 0 0 0-.059-.606.898.898 0 0 0-.223-.39zm-.312 1.292a.547.547 0 0 1-.056.221.346.346 0 0 1-.156.149.619.619 0 0 1-.285.053h-.275v-1.441h.311a.578.578 0 0 1 .272.053.349.349 0 0 1 .142.157.62.62 0 0 1 .053.236v.282c0 .099.006.2 0 .291h-.006zm3.173-1.589h-.495l-.934 4.239h.604l.177-.911h.823l.177.911h.604l-.957-4.239zm-.557 2.751.297-1.537h.011l.296 1.537h-.604zm4.46-.197h-.011l-.912-2.554h-.581v4.239h.604V27.42h.012l.923 2.549h.568V25.73h-.604v2.554zm3.691-2.554-.486 1.685h-.012l-.486-1.685h-.64l.83 2.447v1.792h.604v-1.792l.83-2.447h-.64zM0 31.166h.291v.817h.198v-.817h.29v-.167H.001v.167zm2.447-.168-.381.984h.21l.081-.224h.392l.084.224h.215l-.391-.984h-.21zm-.031.595.134-.365.134.365h-.268zm2.45.027h.227v.127a.382.382 0 0 1-.234.083.244.244 0 0 1-.209-.093.411.411 0 0 1-.073-.257c0-.219.095-.329.283-.329a.206.206 0 0 1 .222.157l.195-.038c-.042-.192-.181-.289-.417-.289a.495.495 0 0 0-.344.127.494.494 0 0 0-.141.379.532.532 0 0 0 .126.369.477.477 0 0 0 .374.144.59.59 0 0 0 .417-.157v-.388h-.427v.166zm2.471-.622h-.199v.984h.69v-.167h-.49v-.817zm2.089 0h-.199v.984h.199v-.984zm2.043.658-.403-.657h-.193v.984h.185v-.643l.395.643h.198v-.984h-.182v.657zm1.846-.107h.49v-.167h-.49v-.216h.528v-.167h-.727v.984h.747v-.167h-.548v-.266zm4.477-.162h-.388v-.388h-.198v.984h.198v-.43h.388v.43h.198v-.984h-.198v.388zm1.857.162h.492v-.167h-.492v-.216h.529v-.167h-.727v.984h.746v-.167h-.548v-.266zm2.519 0c.171-.027.258-.117.258-.274a.236.236 0 0 0-.096-.219.553.553 0 0 0-.288-.058h-.417v.984h.198v-.412h.039a.261.261 0 0 1 .123.022.21.21 0 0 1 .07.072l.215.313h.237l-.12-.192a.685.685 0 0 0-.218-.236zm-.199-.136h-.146v-.247h.156a.526.526 0 0 1 .201.023.135.135 0 0 1 .033.046.133.133 0 0 1-.005.111.128.128 0 0 1-.037.043.547.547 0 0 1-.201.023zm2.098.136h.49v-.167h-.49v-.216h.529v-.167h-.729v.984h.747v-.167h-.548v-.266z"/></symbol><symbol id="logo3" viewBox="0 0 31 32"><path d="M4.722 31.103a.088.088 0 0 1 .059.025l.153.161c-.119.13-.266.234-.431.305a1.532 1.532 0 0 1-.611.109 1.496 1.496 0 0 1-.574-.102 1.25 1.25 0 0 1-.712-.733 1.618 1.618 0 0 1-.098-.571c-.003-.195.033-.39.105-.573.067-.166.168-.317.297-.445.131-.126.287-.224.459-.29.189-.07.389-.104.591-.102.188-.004.375.027.549.093.152.063.291.15.412.257l-.128.171a.122.122 0 0 1-.033.031.084.084 0 0 1-.052.013.123.123 0 0 1-.056-.018l-.069-.046-.096-.058a.978.978 0 0 0-.302-.103 1.238 1.238 0 0 0-.228-.018 1.12 1.12 0 0 0-.425.077.96.96 0 0 0-.333.215.997.997 0 0 0-.216.343c-.054.145-.08.298-.078.452-.002.156.024.312.078.46.047.126.119.242.212.341a.863.863 0 0 0 .318.212c.125.049.259.074.394.073.078.001.156-.004.234-.015a.87.87 0 0 0 .354-.122c.054-.034.104-.072.151-.113a.115.115 0 0 1 .073-.029zm4.422-.807c.002.194-.033.386-.103.567-.062.165-.161.315-.288.44s-.282.224-.452.289a1.711 1.711 0 0 1-1.164 0 1.281 1.281 0 0 1-.741-.735 1.61 1.61 0 0 1 0-1.136c.065-.166.164-.317.291-.447.128-.121.281-.216.45-.279.374-.139.79-.139 1.164 0 .17.066.324.165.452.29.126.127.224.276.289.44.071.183.106.376.103.571zm-.402 0a1.313 1.313 0 0 0-.073-.456.898.898 0 0 0-.528-.556 1.23 1.23 0 0 0-.846 0 .901.901 0 0 0-.531.556 1.465 1.465 0 0 0 0 .912.888.888 0 0 0 .531.554c.273.097.573.097.846 0a.884.884 0 0 0 .528-.554c.051-.147.076-.301.073-.456zm3.419.478.04.102a3.46 3.46 0 0 1 .044-.102.933.933 0 0 1 .05-.1l.978-1.694c.019-.029.036-.047.056-.053a.217.217 0 0 1 .08-.009h.289v2.755h-.343V29.561a.753.753 0 0 1 0-.095l-.984 1.718c-.012.026-.033.047-.058.063s-.054.023-.084.023h-.056a.154.154 0 0 1-.141-.086l-1.013-1.729v2.213h-.331v-2.75h.289a.24.24 0 0 1 .08.009c.024.011.043.03.054.053l.999 1.696c.02.031.036.064.05.098zm3.681-.136v1.032h-.383v-2.752h.854a1.67 1.67 0 0 1 .477.06.912.912 0 0 1 .337.171.699.699 0 0 1 .191.27.905.905 0 0 1 .065.352.84.84 0 0 1-.071.352.744.744 0 0 1-.207.275.936.936 0 0 1-.339.182 1.498 1.498 0 0 1-.461.064l-.463-.007zm0-.296h.463a.992.992 0 0 0 .297-.042.617.617 0 0 0 .214-.119.477.477 0 0 0 .13-.182.579.579 0 0 0 .046-.232.522.522 0 0 0-.172-.412.766.766 0 0 0-.515-.148h-.463v1.134zm5.145 1.331h-.302a.133.133 0 0 1-.084-.026.164.164 0 0 1-.05-.064l-.26-.666h-1.307l-.27.666a.145.145 0 0 1-.048.062.132.132 0 0 1-.086.027h-.302l1.148-2.756h.398l1.164 2.756zm-1.895-1.023h1.08l-.456-1.122a1.828 1.828 0 0 1-.086-.259l-.044.144c-.013.044-.029.084-.042.117l-.452 1.12zm3.549-1.719a.16.16 0 0 1 .057.049l1.675 2.077v-2.139h.343v2.756h-.191a.173.173 0 0 1-.078-.016.2.2 0 0 1-.061-.051l-1.673-2.075a.753.753 0 0 1 0 .095v2.048h-.343v-2.756h.203a.163.163 0 0 1 .069.013zm4.896 1.646v1.094h-.383v-1.094l-1.059-1.66h.343a.126.126 0 0 1 .082.024.256.256 0 0 1 .052.062l.662 1.071a1.256 1.256 0 0 1 .117.245l.05-.119c.019-.043.04-.085.065-.126l.653-1.078a.274.274 0 0 1 .05-.058.116.116 0 0 1 .082-.027h.346l-1.06 1.667zm-15.566-6.284c.167.02.335.036.505.051 2.583-1.101 4.768-2.902 6.282-5.18s2.29-4.929 2.231-7.624l-2.846-2.712c.579 2.869.308 5.836-.782 8.567s-2.956 5.12-5.389 6.898z"/><path d="m10.955 24.167.077.015c2.6-1.772 4.583-4.247 5.691-7.104s1.292-5.965.526-8.922l-4.054-3.862c1.64 3.175 2.3 6.728 1.903 10.246s-1.833 6.857-4.143 9.628zm13.749-9.442c-.689 2.961-2.362 5.632-4.77 7.616a15.094 15.094 0 0 1-2.266 1.55c1.961-.549 3.764-1.52 5.269-2.838s2.672-2.947 3.412-4.763l-1.644-1.565z"/><path d="m24.059 14.289-2.341-2.23c-.045 2.543-.803 5.028-2.197 7.197s-3.372 3.943-5.729 5.137h.011a14 14 0 0 0 1.572-.089c2.203-.857 4.148-2.219 5.664-3.967s2.553-3.825 3.021-6.047zM11.294 2.664 8.501 0C6.004.919 3.857 2.535 2.34 4.636S.008 9.225 0 11.775c.009 2.818 1.005 5.552 2.829 7.77s4.372 3.793 7.242 4.476c2.561-2.973 4.061-6.647 4.281-10.488s-.851-7.648-3.058-10.869zm19.218 11.214c-.01-3.343-1.409-6.546-3.89-8.91s-5.843-3.696-9.352-3.706a13.655 13.655 0 0 0-4.741.841l17.099 16.291c.585-1.44.885-2.971.884-4.515z"/></symbol><symbol id="logo4" viewBox="0 0 60 32"><path d="M9.229 9.548h-.002c-1.684 0-3.048 1.33-3.048 2.971v.002c0 1.641 1.365 2.971 3.048 2.971h.002c1.684 0 3.048-1.33 3.048-2.971v-.002c0-1.641-1.365-2.971-3.048-2.971zm22.501-.949c-.005-2.279-.936-4.463-2.589-6.074S25.247.006 22.908.001c-2.339.004-4.581.911-6.235 2.523S14.087 6.32 14.083 8.6v12.566S31.728 19.251 31.73 8.602V8.6zM0 25.289c.004 1.586.652 3.105 1.803 4.226s2.709 1.753 4.336 1.758c1.627-.005 3.185-.636 4.336-1.757s1.799-2.64 1.803-4.225v-8.744S0 17.881 0 25.289zm6.139 1.567c-.318 0-.629-.092-.893-.264s-.47-.417-.592-.703-.154-.601-.091-.905c.062-.304.215-.583.44-.802s.511-.368.823-.429c.312-.06.635-.029.929.089s.545.319.721.577a1.537 1.537 0 0 1 .15 1.471 1.585 1.585 0 0 1-.87.851c-.195.079-.405.12-.617.12v-.006zm12.532-.972h-1.256v1.297h-.654v-3.174h2.067v.53h-1.413v.82h1.256v.528zm3.144-.218c0 .312-.055.587-.166.822s-.269.417-.475.545c-.205.128-.44.192-.706.192-.263 0-.498-.063-.704-.19s-.366-.307-.48-.541a1.867 1.867 0 0 1-.172-.811v-.157c0-.312.056-.587.168-.824a1.26 1.26 0 0 1 .477-.547c.206-.128.442-.192.706-.192s.499.064.704.192c.206.126.366.309.477.547.113.237.17.511.17.822v.142zm-.663-.144c0-.333-.06-.586-.179-.759s-.289-.259-.51-.259a.583.583 0 0 0-.508.257c-.119.17-.18.42-.181.75v.155c0 .324.06.576.179.754s.291.268.515.268a.579.579 0 0 0 .506-.257c.118-.173.177-.424.179-.754v-.155zm2.784.826a.331.331 0 0 0-.131-.283c-.087-.067-.244-.137-.471-.209a3.375 3.375 0 0 1-.538-.218c-.36-.195-.541-.457-.541-.787 0-.172.048-.324.144-.458a.945.945 0 0 1 .416-.316 1.57 1.57 0 0 1 .611-.113c.227 0 .429.041.606.124a.946.946 0 0 1 .412.347c.099.15.148.32.148.51h-.654a.427.427 0 0 0-.137-.338c-.092-.081-.22-.122-.386-.122a.602.602 0 0 0-.373.102.317.317 0 0 0-.133.266c0 .103.052.19.155.259.105.07.258.135.46.196.372.112.643.251.813.416s.255.372.255.619a.767.767 0 0 1-.312.648c-.208.156-.488.233-.839.233-.244 0-.467-.044-.667-.133a1.07 1.07 0 0 1-.46-.368.945.945 0 0 1-.157-.541h.656c0 .35.209.525.628.525a.61.61 0 0 0 .364-.094.313.313 0 0 0 .131-.266zm3.491-1.812h-.972v2.645h-.654v-2.645h-.959v-.53h2.586v.53zm2.285 1.269h-1.256v.85h1.474v.525h-2.128v-3.174h2.124v.53h-1.47v.757h1.256v.512zm1.777.214h-.521v1.162h-.654v-3.174h1.18c.375 0 .664.084.868.251s.305.403.305.709a.973.973 0 0 1-.142.543.95.95 0 0 1-.425.344l.687 1.297v.03h-.702l-.595-1.162zm-.522-.53h.528c.164 0 .291-.041.382-.124.09-.084.135-.2.135-.347a.476.476 0 0 0-.129-.353c-.084-.086-.214-.129-.39-.129h-.525v.953zm3.964.574v1.118h-.654v-3.174h1.238c.238 0 .448.044.628.131a.964.964 0 0 1 .419.373c.097.16.146.342.146.547 0 .311-.107.557-.32.737-.212.179-.507.268-.883.268h-.573zm0-.53h.584c.173 0 .305-.041.395-.122.092-.081.137-.198.137-.349 0-.156-.046-.281-.137-.377s-.218-.145-.379-.148h-.6v.996zm4.138.272h-1.256v.85h1.474v.525h-2.128v-3.174h2.124v.53h-1.469v.757h1.256v.512zm3.035-1.269h-.972v2.645h-.654v-2.645h-.959v-.53h2.586v.53zm2.285 1.269h-1.256v.85h1.474v.525h-2.128v-3.174h2.124v.53h-1.469v.757h1.256v.512zm1.777.214h-.521v1.162h-.654v-3.174h1.18c.375 0 .664.084.868.251s.305.403.305.709a.973.973 0 0 1-.142.543.95.95 0 0 1-.425.344l.687 1.297v.03h-.702l-.595-1.162zm-.521-.53h.528c.164 0 .291-.041.382-.124.09-.084.135-.2.135-.347a.476.476 0 0 0-.129-.353c-.084-.086-.214-.129-.39-.129h-.525v.953zm3.844.859a.331.331 0 0 0-.131-.283c-.087-.067-.244-.137-.471-.209a3.432 3.432 0 0 1-.539-.218c-.36-.195-.541-.457-.541-.787 0-.172.048-.324.144-.458a.945.945 0 0 1 .416-.316c.182-.076.385-.113.61-.113.227 0 .429.041.606.124a.946.946 0 0 1 .412.347c.099.15.148.32.148.51h-.654a.427.427 0 0 0-.137-.338c-.092-.081-.22-.122-.386-.122a.602.602 0 0 0-.373.102.317.317 0 0 0-.133.266c0 .103.052.19.155.259.105.07.258.135.46.196.372.112.643.251.813.416s.255.372.255.619a.767.767 0 0 1-.312.648c-.208.156-.488.233-.839.233-.244 0-.467-.044-.667-.133a1.07 1.07 0 0 1-.46-.368.945.945 0 0 1-.157-.541h.656c0 .35.209.525.628.525a.61.61 0 0 0 .364-.094.313.313 0 0 0 .131-.266z"/></symbol><symbol id="logo5" viewBox="0 0 40 32"><path d="M3.055 26.742c.156.194.24.438.236.688a1.092 1.092 0 0 1-.365.869 1.575 1.575 0 0 1-1.061.317H0v-4.361h1.827c.361-.024.718.078 1.012.29a.998.998 0 0 1 .354.816c.011.241-.065.477-.212.667a.997.997 0 0 1-.556.341c.247.045.471.177.63.373zm-2.187-.658h.781a.736.736 0 0 0 .496-.145.515.515 0 0 0 .167-.426.526.526 0 0 0-.165-.426.75.75 0 0 0-.511-.147H.868v1.144zm1.354 1.672a.54.54 0 0 0 .185-.443.56.56 0 0 0-.188-.448.803.803 0 0 0-.53-.158H.87v1.199h.83a.822.822 0 0 0 .524-.151zm4.568.861-1.016-1.704h-.382v1.704h-.874v-4.361h1.655c.417-.029.83.104 1.152.371a1.394 1.394 0 0 1 .123 1.804 1.342 1.342 0 0 1-.789.443l1.082 1.743H6.79zm-1.398-2.299h.715c.497 0 .745-.22.745-.66a.641.641 0 0 0-.183-.49.771.771 0 0 0-.562-.177h-.724l.008 1.327zm6.176 1.421H9.826l-.308.878h-.917l1.6-4.312h.991l1.593 4.312h-.917l-.301-.878zm-.233-.66-.637-1.841-.637 1.841h1.273zm6.215 1.538h-.868l-1.946-2.965v2.965h-.866v-4.361h.866l1.946 2.983v-2.983h.868v4.361zm4.952-1.044a1.877 1.877 0 0 1-.785.769 2.546 2.546 0 0 1-1.22.275h-1.545v-4.361h1.545c.422-.011.841.081 1.22.268.332.168.606.433.785.761a2.541 2.541 0 0 1 0 2.288zm-.993-.104a1.601 1.601 0 0 0 0-2.082 1.506 1.506 0 0 0-1.086-.371h-.603v2.823h.603a1.5 1.5 0 0 0 1.086-.371zM12.111 0s11.201 4.246 10.963 10.39v10.392S11.881 16.534 12.115 10.39L12.111 0zm20.943 18.349a15.301 15.301 0 0 1 7.117-2.633v-3.253a14.62 14.62 0 0 0-7.117 5.886z"/><path d="M31.783 19.329a15.237 15.237 0 0 1 8.388-7.548V2.407S24.219 8.455 24.557 17.204v14.795s.711-.27 1.829-.778c0-.473 0-.95.051-1.43a15.387 15.387 0 0 1 5.347-10.464z"/><path d="M30.266 24.825a15.35 15.35 0 0 1 .558-3.029 14.323 14.323 0 0 0-3.377 8.937c.906-.437 1.96-.982 3.068-1.623a15.355 15.355 0 0 1-.248-4.284zm.634.053a14.705 14.705 0 0 0 .197 3.879c4.358-2.618 9.255-6.664 9.067-11.553v-.426a14.276 14.276 0 0 0-8.292 3.89 14.648 14.648 0 0 0-.972 4.21z"/></symbol><symbol id="logo6" viewBox="0 0 62 32"><path d="M31.124 14.854a2.264 2.264 0 0 1-.397-1.431v-2.075c0-.636.132-1.119.395-1.45s.715-.495 1.356-.494c.602 0 1.029.141 1.282.422.276.359.41.798.379 1.241v.488h-1.077v-.494a2.787 2.787 0 0 0-.031-.483.482.482 0 0 0-.154-.287.587.587 0 0 0-.39-.112.619.619 0 0 0-.41.118.563.563 0 0 0-.178.317 2.594 2.594 0 0 0-.042.513v2.518c-.017.243.031.486.138.707.054.075.128.134.215.171s.183.051.278.04a.545.545 0 0 0 .381-.114.521.521 0 0 0 .161-.306c.025-.167.036-.336.033-.505v-.511h1.077v.466c.03.462-.101.92-.372 1.304-.247.308-.669.462-1.289.462s-1.088-.165-1.353-.507zm4.483.022c-.272-.323-.408-.794-.408-1.416v-2.182c0-.616.136-1.083.408-1.399s.727-.474 1.364-.473c.633 0 1.086.158 1.358.473.272.317.41.783.41 1.399v2.182c0 .616-.138 1.089-.415 1.414s-.727.488-1.353.488-1.09-.165-1.364-.485zm1.867-.524c.097-.202.142-.424.129-.646v-2.672a1.275 1.275 0 0 0-.127-.633c-.055-.076-.131-.137-.22-.174s-.187-.05-.284-.037c-.097-.013-.195 0-.285.037s-.166.097-.221.174a1.255 1.255 0 0 0-.129.633v2.685c-.014.222.031.444.129.646.063.068.14.123.227.16a.708.708 0 0 0 .554 0 .678.678 0 0 0 .227-.16v-.013zm2.561-4.884h1.159l.872 4.027.892-4.027h1.128l.114 5.812h-.834l-.089-4.04-.861 4.04h-.669l-.892-4.054-.082 4.054h-.843l.105-5.812zm5.465 0h1.806c1.04 0 1.561.55 1.561 1.65 0 1.054-.548 1.58-1.643 1.579h-.615v2.583h-1.115l.007-5.812zm1.542 2.484c.11.013.222.004.328-.028s.203-.085.285-.156c.128-.196.184-.427.16-.656a1.999 1.999 0 0 0-.053-.528c-.016-.058-.044-.112-.082-.159s-.086-.087-.141-.117a1.072 1.072 0 0 0-.497-.093h-.432v1.737h.432zm3.432-2.484h1.197l1.228 5.812H51.86l-.243-1.34h-1.068l-.25 1.34h-1.055l1.228-5.812zm1.023 3.799-.417-2.44-.417 2.44h.834zm2.395-3.799h.78l1.494 3.316V9.468h.925v5.812h-.742l-1.503-3.461v3.461h-.957l.002-5.812zm5.366 3.596-1.242-3.588h1.046l.758 2.305.711-2.305h1.023l-1.226 3.588v2.216h-1.07v-2.216zm-26.413 4.758v.304h-.91v2.362h-.381v-2.362h-.914v-.304h2.205zm2.852 2.666h-.294a.124.124 0 0 1-.083-.025.139.139 0 0 1-.049-.061l-.263-.633h-1.262l-.263.633a.177.177 0 0 1-.04.072.122.122 0 0 1-.083.025h-.294l1.115-2.666h.388l1.128 2.655zm-1.847-.99h1.052l-.446-1.085a2.234 2.234 0 0 1-.083-.251l-.042.141-.04.112-.441 1.083zm3.768.728a1.071 1.071 0 0 0 .388-.032c.055-.013.108-.029.16-.049.049-.019.098-.042.149-.065v-.599h-.446a.07.07 0 0 1-.032-.005.081.081 0 0 1-.045-.039.05.05 0 0 1-.005-.027v-.205h.865v1.022a1.557 1.557 0 0 1-.47.218 1.86 1.86 0 0 1-.279.055 3.216 3.216 0 0 1-.325.017 1.56 1.56 0 0 1-.562-.099 1.34 1.34 0 0 1-.446-.279 1.3 1.3 0 0 1-.288-.422 1.459 1.459 0 0 1-.103-.553c-.002-.19.032-.379.1-.557.064-.158.162-.302.288-.422.127-.12.279-.214.446-.277.191-.068.394-.102.597-.099.104 0 .207.008.31.023a1.412 1.412 0 0 1 .488.174c.068.042.133.088.194.139l-.107.165a.098.098 0 0 1-.087.051.136.136 0 0 1-.069-.021 1.538 1.538 0 0 1-.109-.063.975.975 0 0 0-.149-.072 1.301 1.301 0 0 0-.205-.059 1.574 1.574 0 0 0-.283-.023 1.187 1.187 0 0 0-.43.074.93.93 0 0 0-.328.211.943.943 0 0 0-.207.331c-.1.289-.1.6 0 .889a.964.964 0 0 0 .548.547c.142.046.292.064.441.053zm3.554-.042h1.217v.304h-1.59v-2.666h.381l-.009 2.362zm2.484.304h-.381v-2.666h.381v2.666zm1.418-2.654a.183.183 0 0 1 .058.049l1.63 2.009a.753.753 0 0 1 0-.095V17.81h.332v2.676h-.192a.17.17 0 0 1-.083-.015.196.196 0 0 1-.06-.051l-1.628-2.007v2.073h-.319V17.82h.198c.022 0 .043.004.062.013zm4.827-.012v.293H48.55v.88h1.095v.283H48.55v.91h1.351v.293h-1.743v-2.659h1.743zM9.95 1.359 26.879 5.91v15.946L9.95 17.308V1.36zM8.864 0v18.082l19.098 5.135V5.137L8.864 0z"/><path d="M19.1 31.611 0 26.472V8.392l19.1 5.137v18.082z"/><path d="m9.181 1.155 16.708 4.493-7.105 6.729-16.71-4.496 7.108-6.726zM8.864 0 0 8.392l19.1 5.137 8.862-8.392L8.864 0zm11.311 30.593 7.788-7.374-7.788-2.096v9.47z"/></symbol><symbol id="smartphone" viewBox="0 0 20 32"><path d="M17 0H3C1.346 0 0 1.346 0 3v26c0 1.654 1.346 3 3 3h14c1.654 0 3-1.346 3-3V3c0-1.654-1.346-3-3-3zM3 2h14a1 1 0 0 1 1 1v21H2V3a1 1 0 0 1 1-1zm14 28H3a1 1 0 0 1-1-1v-3h16v3a1 1 0 0 1-1 1z"/><path d="M4.707 27.478c.391.365.391.956 0 1.321s-1.024.365-1.414 0c-.391-.365-.391-.956 0-1.321s1.024-.365 1.414 0z"/></symbol><symbol id="twitter" viewBox="0 0 32 32"><path d="M32 6.078c-1.19.522-2.458.868-3.78 1.036a6.523 6.523 0 0 0 2.886-3.626 13.11 13.11 0 0 1-4.16 1.588A6.574 6.574 0 0 0 22.154 3c-3.632 0-6.556 2.948-6.556 6.562 0 .52.044 1.02.152 1.496-5.454-.266-10.28-2.88-13.522-6.862a6.605 6.605 0 0 0-.898 3.316 6.57 6.57 0 0 0 2.914 5.452 6.479 6.479 0 0 1-2.964-.808v.072c0 3.188 2.274 5.836 5.256 6.446a6.548 6.548 0 0 1-1.72.216 5.8 5.8 0 0 1-1.242-.112c.85 2.598 3.262 4.508 6.13 4.57a13.182 13.182 0 0 1-8.134 2.798c-.538 0-1.054-.024-1.57-.09A18.469 18.469 0 0 0 10.064 29c12.072 0 18.672-10 18.672-18.668 0-.29-.01-.57-.024-.848A13.087 13.087 0 0 0 32 6.078z"/></symbol><symbol id="close" viewBox="0 0 32 32"><path d="M32 3.223 28.777 0 16 12.777 3.223 0 0 3.223 12.777 16 0 28.777 3.223 32 16 19.223 28.777 32 32 28.777 19.223 16 32 3.223z"/></symbol><symbol id="icon_send" viewBox="0 0 32 32"><path d="M32 0 0 18l10.227 3.787L26 7 14.003 23.187l.009.003-.012-.003V32l5.735-6.691L27.002 28l4.999-28z"/></symbol><symbol id="email-form" viewBox="0 0 32 32"><path d="M26.667 5.333H5.334A2.663 2.663 0 0 0 2.681 8l-.013 16c0 1.467 1.2 2.667 2.667 2.667h21.333c1.467 0 2.667-1.2 2.667-2.667V8c0-1.467-1.2-2.667-2.667-2.667zM26.133 11l-9.427 5.893a1.346 1.346 0 0 1-1.413 0L5.866 11a1.132 1.132 0 1 1 1.2-1.92l8.933 5.587 8.933-5.587a1.132 1.132 0 1 1 1.2 1.92z"/></symbol><symbol id="person-form" viewBox="0 0 32 32"><path d="M16 16c2.947 0 5.333-2.387 5.333-5.333S18.946 5.334 16 5.334c-2.947 0-5.333 2.387-5.333 5.333S13.054 16 16 16zm0 2.667c-3.56 0-10.667 1.787-10.667 5.333v1.333c0 .733.6 1.333 1.333 1.333h18.667c.733 0 1.333-.6 1.333-1.333V24c0-3.547-7.107-5.333-10.667-5.333z"/></symbol><symbol id="phone-form" viewBox="0 0 32 32"><path d="m24.882 19.773-3.268-.373a2.561 2.561 0 0 0-2.11.733L17.137 22.5a19.357 19.357 0 0 1-8.478-8.478l2.38-2.38a2.561 2.561 0 0 0 .733-2.11l-.373-3.242a2.575 2.575 0 0 0-2.56-2.277H6.613c-1.454 0-2.663 1.209-2.573 2.663.682 10.987 9.469 19.761 20.443 20.443 1.454.09 2.663-1.119 2.663-2.573V22.32a2.549 2.549 0 0 0-2.264-2.547z"/></symbol><symbol id="icon-check" viewBox="0 0 32 32"><path stroke="var(--color1, #fff)" stroke-width=".492" d="m4.817 15.389-.169-.162-2.544 2.41 8.962 8.55L29.895 8.225l-2.527-2.411L11.066 21.35l-6.249-5.962z"/></symbol><symbol id="close_24px" viewBox="0 0 32 32"><path d="M31.439 3.166 28.273 0 15.72 12.553 3.167 0 .001 3.166l12.553 12.553L.001 28.272l3.166 3.166L15.72 18.885l12.553 12.553 3.166-3.166-12.553-12.553L31.439 3.166z"/></symbol><symbol id="menu_24px" viewBox="0 0 48 32"><path d="M0 5.333V0h48v5.333H0zm0 13.334h48v-5.333H0v5.333zM0 32h48v-5.333H0V32z"/></symbol><symbol id="github" viewBox="0 0 32 32"><path d="M16 .395c-8.836 0-16 7.163-16 16 0 7.069 4.585 13.067 10.942 15.182.8.148 1.094-.347 1.094-.77 0-.381-.015-1.642-.022-2.979-4.452.968-5.391-1.888-5.391-1.888-.728-1.849-1.776-2.341-1.776-2.341-1.452-.993.11-.973.11-.973 1.606.113 2.452 1.649 2.452 1.649 1.427 2.446 3.743 1.739 4.656 1.33.143-1.034.558-1.74 1.016-2.14-3.554-.404-7.29-1.777-7.29-7.907 0-1.747.625-3.174 1.649-4.295-.166-.403-.714-2.03.155-4.234 0 0 1.344-.43 4.401 1.64a15.353 15.353 0 0 1 4.005-.539c1.359.006 2.729.184 4.008.539 3.054-2.07 4.395-1.64 4.395-1.64.871 2.204.323 3.831.157 4.234 1.026 1.12 1.647 2.548 1.647 4.295 0 6.145-3.743 7.498-7.306 7.895.574.497 1.085 1.47 1.085 2.963 0 2.141-.019 3.864-.019 4.391 0 .426.288.925 1.099.768C27.421 29.457 32 23.462 32 16.395c0-8.837-7.164-16-16-16z"/></symbol><symbol id="icon-search" viewBox="0 0 32 32"><path d="M14.667 25.333c5.891 0 10.667-4.776 10.667-10.667S20.558 3.999 14.667 3.999 4 8.775 4 14.666s4.776 10.667 10.667 10.667zM28 28.001l-5.8-5.8"/></symbol><symbol id="Up" viewBox="0 0 32 32"><path d="M29.356 30.227H2.645c-1.027 0-1.851-.511-2.259-1.336a2.494 2.494 0 0 1 0-2.669L13.738 3.107c.513-.82 1.336-1.333 2.26-1.333 1.027 0 1.848.513 2.253 1.333l13.36 23.115a2.494 2.494 0 0 1 0 2.669c-.413.927-1.236 1.336-2.256 1.336z"/></symbol><symbol id="icon-film" viewBox="0 0 32 32"><path d="M26.427 2.667H5.574a2.907 2.907 0 0 0-2.907 2.907v20.853a2.907 2.907 0 0 0 2.907 2.907h20.853a2.907 2.907 0 0 0 2.907-2.907V5.574a2.907 2.907 0 0 0-2.907-2.907zM9.333 2.667v26.667M22.667 2.667v26.667M2.667 16h26.667M2.667 9.333h6.667M2.667 22.667h6.667M22.667 22.667h6.667M22.667 9.333h6.667"/></symbol><svg id="sun" viewBox="0 0 32 32"><path stroke="#000" d="M16 10c-3.306 0-6 2.694-6 6s2.694 6 6 6 6-2.694 6-6-2.694-6-6-6zm15.4 5.031-5.919-2.956L27.575 5.8c.281-.85-.525-1.656-1.369-1.369l-6.275 2.094L16.969.6c-.4-.8-1.537-.8-1.938 0l-2.956 5.919-6.281-2.094c-.85-.281-1.656.525-1.369 1.369l2.094 6.275L.6 15.032c-.8.4-.8 1.538 0 1.938l5.919 2.956-2.094 6.281c-.281.85.525 1.656 1.369 1.369l6.275-2.094 2.956 5.919c.4.8 1.538.8 1.938 0l2.956-5.919 6.275 2.094c.85.281 1.656-.525 1.369-1.369l-2.094-6.275 5.919-2.956c.813-.406.813-1.544.012-1.944zm-9.744 6.625c-3.119 3.119-8.194 3.119-11.313 0s-3.119-8.194 0-11.313c3.119-3.119 8.194-3.119 11.313 0s3.119 8.194 0 11.313z"/></svg><svg id="moon" viewBox="0 0 32 32"><path fill="#fff" stroke="#000" d="M17.701 32a15.97 15.97 0 0 0 12.429-5.925c.442-.544-.04-1.339-.723-1.209-7.763 1.478-14.891-4.474-14.891-12.31 0-4.514 2.416-8.665 6.344-10.9.605-.345.453-1.262-.235-1.389-.879-.17-1.89-.267-2.923-.268-8.832 0-16 7.157-16 16 0 8.832 7.157 16 16 16z"/></svg></defs></svg>